<svg width="16" height="16" viewBox="0 0 16 16" fill="none" xmlns="http://www.w3.org/2000/svg">
<path d="M0 13.3333C0 13.8222 0.4 14.2222 0.888889 14.2222H5.33333V12.4444H0.888889C0.4 12.4444 0 12.8444 0 13.3333ZM0 2.66667C0 3.15556 0.4 3.55556 0.888889 3.55556H8.88889V1.77778H0.888889C0.4 1.77778 0 2.17778 0 2.66667ZM8.88889 15.1111V14.2222H15.1111C15.6 14.2222 16 13.8222 16 13.3333C16 12.8444 15.6 12.4444 15.1111 12.4444H8.88889V11.5556C8.88889 11.0667 8.48889 10.6667 8 10.6667C7.51111 10.6667 7.11111 11.0667 7.11111 11.5556V15.1111C7.11111 15.6 7.51111 16 8 16C8.48889 16 8.88889 15.6 8.88889 15.1111ZM3.55556 6.22222V7.11111H0.888889C0.4 7.11111 0 7.51111 0 8C0 8.48889 0.4 8.88889 0.888889 8.88889H3.55556V9.77778C3.55556 10.2667 3.95556 10.6667 4.44444 10.6667C4.93333 10.6667 5.33333 10.2667 5.33333 9.77778V6.22222C5.33333 5.73333 4.93333 5.33333 4.44444 5.33333C3.95556 5.33333 3.55556 5.73333 3.55556 6.22222ZM16 8C16 7.51111 15.6 7.11111 15.1111 7.11111H7.11111V8.88889H15.1111C15.6 8.88889 16 8.48889 16 8ZM11.5556 5.33333C12.0444 5.33333 12.4444 4.93333 12.4444 4.44444V3.55556H15.1111C15.6 3.55556 16 3.15556 16 2.66667C16 2.17778 15.6 1.77778 15.1111 1.77778H12.4444V0.888889C12.4444 0.4 12.0444 0 11.5556 0C11.0667 0 10.6667 0.4 10.6667 0.888889V4.44444C10.6667 4.93333 11.0667 5.33333 11.5556 5.33333Z" fill="black"/>
</svg>
