<svg width="40" height="30" viewBox="0 0 40 30" fill="none" xmlns="http://www.w3.org/2000/svg">
<path d="M30.4818 0H14.1482C10.3595 0 7.28809 3.06589 7.28809 6.84785V23.1522C7.28809 26.9341 10.3595 30 14.1482 30H30.4818C34.2706 30 37.342 26.9341 37.342 23.1522V6.84785C37.342 3.06589 34.2706 0 30.4818 0Z" fill="url(#paint0_linear_1007_11011)"/>
<path d="M30.3715 0H14.0379C10.2491 0 7.17773 3.06589 7.17773 6.84785V23.1522C7.17773 26.9341 10.2491 30 14.0379 30H30.3715C34.1602 30 37.2316 26.9341 37.2316 23.1522V6.84785C37.2316 3.06589 34.1602 0 30.3715 0Z" fill="url(#paint1_linear_1007_11011)"/>
<g style="mix-blend-mode:overlay" opacity="0.33">
<path d="M30.3715 0H14.0379C10.2491 0 7.17773 3.06589 7.17773 6.84785V23.1522C7.17773 26.9341 10.2491 30 14.0379 30H30.3715C34.1602 30 37.2316 26.9341 37.2316 23.1522V6.84785C37.2316 3.06589 34.1602 0 30.3715 0Z" fill="#35404C"/>
</g>
<mask id="mask0_1007_11011" style="mask-type:luminance" maskUnits="userSpaceOnUse" x="7" y="0" width="39" height="30">
<path d="M30.482 30H14.0379C10.2493 30 7.17773 26.9339 7.17773 23.1522V6.84785C7.17773 3.06608 10.2489 0 14.0379 0H30.482C34.2705 0 45.9626 4.80016 45.9626 8.58193L37.3417 23.1522C37.3417 26.9339 34.2701 30 30.4815 30H30.482Z" fill="white"/>
</mask>
<g mask="url(#mask0_1007_11011)">
<path d="M27.1431 8.1943C18.4962 19.0431 0.407227 26.1378 0.407227 26.1378L8.21622 25.9758C10.0471 25.9055 15.1718 24.5898 17.1755 21.6027C17.1764 21.6014 17.1741 21.5977 17.1755 21.5982C19.8838 22.6066 26.9308 23.4067 37.8241 16.1572C42.4333 12.9386 44.6061 10.1893 44.6061 10.1893C44.6061 10.1893 32.6234 12.2438 27.1431 8.19385V8.1943Z" fill="url(#paint2_linear_1007_11011)"/>
<path d="M27.1431 8.1943C18.4962 19.0431 0.407227 26.1378 0.407227 26.1378L8.21622 25.9758C10.0471 25.9055 15.1718 24.5898 17.1755 21.6027C17.1764 21.6014 17.1741 21.5977 17.1755 21.5982C19.8838 22.6066 26.9308 23.4067 37.8241 16.1572C42.4333 12.9386 44.6061 10.1893 44.6061 10.1893C44.6061 10.1893 32.6234 12.2438 27.1431 8.19385V8.1943Z" fill="url(#paint3_radial_1007_11011)"/>
<path d="M27.1431 8.1943C18.4962 19.0431 0.407227 26.1378 0.407227 26.1378L8.21622 25.9758C10.0471 25.9055 15.1718 24.5898 17.1755 21.6027C17.1764 21.6014 17.1741 21.5977 17.1755 21.5982C19.8838 22.6066 26.9308 23.4067 37.8241 16.1572C42.4333 12.9386 44.6061 10.1893 44.6061 10.1893C44.6061 10.1893 32.6234 12.2438 27.1431 8.19385V8.1943Z" fill="url(#paint4_linear_1007_11011)"/>
<path d="M26.8148 7.70393C26.8148 7.70393 26.8039 7.71618 26.7976 7.72299C17.5469 17.8457 0.235352 24.8855 0.235352 24.8855L8.10072 24.9994C9.90884 25.0062 14.7872 23.785 17.2418 20.5741C17.2409 20.5741 17.2414 20.5741 17.2418 20.5736C17.2418 20.5736 17.2414 20.5741 17.2418 20.5741C20.543 20.8296 25.7096 20.816 36.4197 12.9665C40.6265 9.77612 43.0534 7.21924 43.0534 7.21924C43.0534 7.21924 33.7123 9.28644 26.8148 7.70393Z" fill="url(#paint5_linear_1007_11011)"/>
<path d="M26.8148 7.70393C26.8148 7.70393 26.8039 7.71618 26.7976 7.72299C17.5469 17.8457 0.235352 24.8855 0.235352 24.8855L8.10072 24.9994C9.90884 25.0062 14.7872 23.785 17.2418 20.5741C17.2409 20.5741 17.2414 20.5741 17.2418 20.5736C17.2418 20.5736 17.2414 20.5741 17.2418 20.5741C20.543 20.8296 25.7096 20.816 36.4197 12.9665C40.6265 9.77612 43.0534 7.21924 43.0534 7.21924C43.0534 7.21924 33.7123 9.28644 26.8148 7.70393Z" fill="url(#paint6_linear_1007_11011)"/>
<path d="M26.6581 7.44348C13.4998 18.7457 0 23.746 0 23.746L10.0136 23.4977L10.2918 23.4474C11.4152 23.2331 14.7769 22.369 17.1583 20.2787C17.1583 20.2787 18.0512 20.2193 18.0522 20.2188C25.1546 18.5846 33.5674 12.2736 33.6901 12.1919C38.7426 8.50816 41.5082 4.94287 41.5082 4.94287C41.5082 4.94287 32.4176 7.25151 26.6577 7.44348H26.6581Z" fill="url(#paint7_linear_1007_11011)"/>
<path d="M26.6581 7.44348C13.4998 18.7457 0 23.746 0 23.746L10.0136 23.4977L10.2918 23.4474C11.4152 23.2331 14.7769 22.369 17.1583 20.2787C17.1583 20.2787 18.0512 20.2193 18.0522 20.2188C25.1546 18.5846 33.5674 12.2736 33.6901 12.1919C38.7426 8.50816 41.5082 4.94287 41.5082 4.94287C41.5082 4.94287 32.4176 7.25151 26.6577 7.44348H26.6581Z" fill="url(#paint8_linear_1007_11011)"/>
<path d="M17.0471 19.9538C14.6657 22.0441 11.415 23.2331 10.292 23.4473L11.7787 23.1787C19.8118 21.3683 27.8986 16.4148 33.6903 12.1919C33.5671 12.2736 25.1666 18.5433 17.0471 19.9538Z" fill="url(#paint9_linear_1007_11011)"/>
<path d="M17.2417 20.5734C14.7866 23.7843 9.90917 25.006 8.10059 24.9992L8.6257 25.0069C20.3424 23.6327 30.2782 17.6244 36.4195 12.9663C25.7095 20.8153 20.5424 20.8285 17.2412 20.5734H17.2417Z" fill="url(#paint10_linear_1007_11011)"/>
<path d="M17.2736 21.6068C17.2736 21.6068 17.2135 21.5905 17.2126 21.5918C14.7816 24.4936 10.0842 25.8992 8.25293 25.9695L8.73986 25.9595C22.5774 24.9066 32.1136 20.1641 37.8608 16.1509C26.9675 23.4004 20.0764 22.3021 17.2736 21.6068Z" fill="url(#paint11_linear_1007_11011)"/>
</g>
<defs>
<linearGradient id="paint0_linear_1007_11011" x1="30.2163" y1="31.558" x2="6.54864" y2="-18.2175" gradientUnits="userSpaceOnUse">
<stop stop-color="#0065FF"/>
<stop offset="1" stop-color="#C1FFFF"/>
</linearGradient>
<linearGradient id="paint1_linear_1007_11011" x1="30.106" y1="31.558" x2="6.43829" y2="-18.2175" gradientUnits="userSpaceOnUse">
<stop stop-color="#0094FF"/>
<stop offset="1" stop-color="#C1FFFF"/>
</linearGradient>
<linearGradient id="paint2_linear_1007_11011" x1="12.5037" y1="17.6026" x2="59.1992" y2="12.9485" gradientUnits="userSpaceOnUse">
<stop stop-color="#EFEEFF"/>
<stop offset="0.17" stop-color="#E5E9FF"/>
<stop offset="0.44" stop-color="#CCDEFF"/>
<stop offset="0.79" stop-color="#A3CBFF"/>
<stop offset="1" stop-color="#87BFFF"/>
</linearGradient>
<radialGradient id="paint3_radial_1007_11011" cx="0" cy="0" r="1" gradientUnits="userSpaceOnUse" gradientTransform="translate(17.7014 16.2398) rotate(-16.4321) scale(27.4957 11.2563)">
<stop stop-color="#1249FF"/>
<stop offset="1" stop-color="#CCD7F6" stop-opacity="0"/>
</radialGradient>
<linearGradient id="paint4_linear_1007_11011" x1="24.8516" y1="22.1353" x2="27.7482" y2="26.8041" gradientUnits="userSpaceOnUse">
<stop stop-color="white" stop-opacity="0"/>
<stop offset="0.28" stop-color="white" stop-opacity="0.5"/>
</linearGradient>
<linearGradient id="paint5_linear_1007_11011" x1="4.30888" y1="9.81954" x2="51.0354" y2="20.1645" gradientUnits="userSpaceOnUse">
<stop stop-color="#EFEEFF"/>
<stop offset="0.17" stop-color="#E5E9FF"/>
<stop offset="0.44" stop-color="#CCDEFF"/>
<stop offset="0.79" stop-color="#A3CBFF"/>
<stop offset="1" stop-color="#87BFFF"/>
</linearGradient>
<linearGradient id="paint6_linear_1007_11011" x1="23.7125" y1="19.0682" x2="25.9399" y2="21.7834" gradientUnits="userSpaceOnUse">
<stop stop-color="#EFEEFF" stop-opacity="0"/>
<stop offset="0.08" stop-color="#EFEEFF" stop-opacity="0.04"/>
<stop offset="0.23" stop-color="#F1F0FF" stop-opacity="0.14"/>
<stop offset="0.41" stop-color="#F3F3FF" stop-opacity="0.3"/>
<stop offset="0.62" stop-color="#F7F6FF" stop-opacity="0.53"/>
<stop offset="0.86" stop-color="#FBFBFF" stop-opacity="0.81"/>
<stop offset="1" stop-color="white"/>
</linearGradient>
<linearGradient id="paint7_linear_1007_11011" x1="-0.425735" y1="22.6038" x2="42.1567" y2="6.67124" gradientUnits="userSpaceOnUse">
<stop stop-color="white"/>
<stop offset="0.7" stop-color="#F5FFFF"/>
<stop offset="1" stop-color="#F0FFFF"/>
</linearGradient>
<linearGradient id="paint8_linear_1007_11011" x1="26.5445" y1="19.1703" x2="28.5385" y2="20.839" gradientUnits="userSpaceOnUse">
<stop stop-color="white" stop-opacity="0"/>
<stop offset="0.08" stop-color="white" stop-opacity="0.04"/>
<stop offset="0.23" stop-color="white" stop-opacity="0.14"/>
<stop offset="0.41" stop-color="white" stop-opacity="0.3"/>
<stop offset="0.62" stop-color="white" stop-opacity="0.53"/>
<stop offset="0.86" stop-color="white" stop-opacity="0.81"/>
<stop offset="1" stop-color="white"/>
</linearGradient>
<linearGradient id="paint9_linear_1007_11011" x1="16.2545" y1="9.55763" x2="31.0714" y2="30.967" gradientUnits="userSpaceOnUse">
<stop stop-color="#EFEEFF"/>
<stop offset="0.08" stop-color="#E5E9FF"/>
<stop offset="0.22" stop-color="#CCDEFF"/>
<stop offset="0.4" stop-color="#A3CBFF"/>
<stop offset="0.5" stop-color="#87BFFF"/>
<stop offset="0.63" stop-color="#87BFFF"/>
</linearGradient>
<linearGradient id="paint10_linear_1007_11011" x1="7.71703" y1="23.7286" x2="37.0101" y2="14.9412" gradientUnits="userSpaceOnUse">
<stop stop-color="#7CAAFF"/>
<stop offset="1" stop-color="#88CAFF"/>
</linearGradient>
<linearGradient id="paint11_linear_1007_11011" x1="22.8808" y1="20.2989" x2="23.6419" y2="23.5687" gradientUnits="userSpaceOnUse">
<stop stop-color="#4A98EF"/>
<stop offset="0.24" stop-color="#3D92E9"/>
<stop offset="0.69" stop-color="#1B83D9"/>
<stop offset="1" stop-color="#0077CD"/>
</linearGradient>
</defs>
</svg>
